<svg width="19" height="18" viewBox="0 0 19 18" fill="none" xmlns="http://www.w3.org/2000/svg">
<path fill-rule="evenodd" clip-rule="evenodd" d="M10.0709 2.4669C10.476 2.09155 10.5002 1.45885 10.1248 1.05372C9.74949 0.648582 9.11679 0.624436 8.71165 0.999783L0.791748 8.33741C0.587481 8.52666 0.471375 8.79251 0.471375 9.07096C0.471375 9.34943 0.587481 9.61527 0.791748 9.80452L8.71165 17.1421C9.11679 17.5175 9.74949 17.4933 10.1248 17.0882C10.5002 16.6831 10.476 16.0504 10.0709 15.675L3.97859 10.0306H17.4714C18.0237 10.0306 18.4714 9.58292 18.4714 9.03063C18.4714 8.47835 18.0237 8.03063 17.4714 8.03063H4.06566L10.0709 2.4669Z" fill="black"/>
</svg>
